<svg version="1.1" id="Layer_1" xmlns="http://www.w3.org/2000/svg" xmlns:xlink="http://www.w3.org/1999/xlink" x="0px" y="0px"
	 width="100%" viewBox="0 0 500 500" enable-background="new 0 0 500 500" xml:space="preserve">
<path fill="#000000" opacity="1.000000" stroke="none" 
	d="
M501.000000,174.000000 
	C501.000000,283.333313 501.000000,392.166595 501.000000,500.999939 
	C334.333405,500.999939 167.666794,500.999939 1.000148,500.999969 
	C1.000099,334.333435 1.000099,167.666870 1.000049,1.000237 
	C167.666519,1.000158 334.333038,1.000158 500.999786,1.000079 
	C501.000000,58.500000 501.000000,116.000000 501.000000,174.000000 
M435.888123,105.024254 
	C435.200470,96.407730 434.512787,87.791214 434.013550,78.270470 
	C433.661621,72.317200 433.223450,66.367493 432.977905,60.409836 
	C432.612488,51.541969 432.406982,42.667633 432.086151,33.797760 
	C431.913971,29.037413 428.847412,27.580086 424.378357,28.557261 
	C417.040131,30.161783 409.516724,30.979074 402.041534,31.880812 
	C394.663544,32.770828 387.248352,33.352982 379.850159,34.076740 
	C379.691406,34.092274 379.544952,34.214741 379.385162,34.240891 
	C376.014404,34.792519 372.642578,35.337826 369.270844,35.883614 
	C366.252197,36.372257 363.235718,36.874744 360.213715,37.341763 
	C358.757874,37.566750 357.296478,37.785877 355.829224,37.901844 
	C347.968353,38.523140 340.104767,39.110363 332.242615,39.715618 
	C332.081421,39.728031 331.929840,39.838898 331.767456,39.865593 
	C323.495667,41.225639 315.246124,42.747299 306.944946,43.895454 
	C296.801392,45.298439 286.619843,46.434875 276.444916,47.600838 
	C263.365479,49.099636 250.305740,50.965946 237.181961,51.819691 
	C226.764282,52.497391 216.263000,51.902592 205.798965,51.847813 
	C202.078690,51.828339 198.342957,51.932774 194.641953,51.635849 
	C186.284988,50.965389 177.953857,49.969959 169.595779,49.317379 
	C163.075073,48.808262 156.529419,48.619595 149.995239,48.281002 
	C148.849991,48.221657 147.702072,48.015949 146.563217,48.063942 
	C140.378937,48.324551 134.196838,48.887630 128.014542,48.880234 
	C120.401550,48.871128 112.768753,47.919292 105.180809,48.238277 
	C90.955063,48.836304 76.751076,49.999687 62.552517,51.112652 
	C61.308723,51.210152 59.179531,52.626312 59.139923,53.505581 
	C58.775074,61.605179 58.586819,69.725067 58.738323,77.831741 
	C58.862450,84.473412 59.504070,91.106140 59.944489,97.740959 
	C60.386383,104.397934 60.727863,111.065475 61.360313,117.704872 
	C62.084831,125.310783 63.180332,132.880997 63.932411,140.484741 
	C64.729652,148.545090 65.308357,156.626984 65.991302,164.698730 
	C66.348877,168.924896 66.615379,173.162567 67.117477,177.371857 
	C67.999649,184.767273 69.560135,192.122406 69.874702,199.535233 
	C70.332191,210.315872 69.917938,221.132706 69.915771,231.934097 
	C69.915054,235.505310 70.198456,239.082184 70.072845,242.646622 
	C69.814697,249.972061 69.260124,257.287476 69.030083,264.613373 
	C68.806679,271.727753 69.041420,278.860260 68.690277,285.965790 
	C68.412567,291.585388 66.732193,297.235901 67.134995,302.766296 
	C67.803833,311.949066 67.803963,320.930878 65.957832,329.993683 
	C65.070557,334.349365 65.264236,338.937561 65.098038,343.425232 
	C64.794930,351.609528 64.596100,359.797607 64.329483,367.983337 
	C64.303009,368.796112 64.012253,369.602814 64.007263,370.413330 
	C63.958218,378.373749 63.967468,386.334534 63.904224,394.294800 
	C63.886562,396.517731 63.508595,398.746155 63.596519,400.960114 
	C63.974964,410.489136 64.582024,420.010132 64.875038,429.541138 
	C65.080963,436.239532 64.914818,442.949341 64.914818,450.013885 
	C68.785820,450.013885 72.035080,449.985626 75.283623,450.021240 
	C79.089508,450.062988 80.263397,452.057190 79.065170,455.498383 
	C78.472839,457.199554 77.734673,458.895660 76.778221,460.415131 
	C74.623924,463.837585 75.972336,465.772552 79.379692,466.643646 
	C81.115913,467.087463 83.004311,466.963043 84.826271,467.039978 
	C96.118439,467.516846 107.409897,468.015137 118.704369,468.431305 
	C126.293137,468.710938 133.889236,469.109253 141.477112,469.022430 
	C153.348083,468.886566 165.213715,468.335052 177.083908,468.057861 
	C183.825363,467.900421 190.582397,468.160828 197.312439,467.828583 
	C204.723755,467.462708 212.102493,466.444458 219.513565,466.063599 
	C225.709183,465.745270 231.938293,466.116364 238.139725,465.865143 
	C252.126083,465.298492 266.104492,464.535553 280.945160,463.914581 
	C289.953674,463.263794 298.962189,462.612976 308.806061,462.054016 
	C315.014648,461.397705 321.272217,461.037109 327.420654,460.017914 
	C337.417725,458.360748 347.355316,456.332611 357.296112,454.351288 
	C369.833923,451.852264 382.282867,448.827026 394.893860,446.797455 
	C407.715118,444.734039 420.673584,443.478699 433.598694,442.125092 
	C439.259521,441.532288 442.349731,439.277954 441.864471,433.981873 
	C441.084961,425.475067 439.687347,417.020111 438.396301,408.566864 
	C437.699615,404.005219 437.519470,399.549500 440.756744,395.874695 
	C444.694458,391.404755 449.024597,387.278717 452.928558,382.781281 
	C456.220734,378.988647 460.318634,375.481262 459.940796,369.694458 
	C459.660553,365.402069 459.387299,361.104462 458.921661,356.829803 
	C457.313873,342.070160 455.480896,327.333679 454.015747,312.560394 
	C453.085358,303.179382 452.763306,293.739624 451.971436,284.342804 
	C451.084961,273.823547 450.004761,263.320251 448.955475,252.815308 
	C447.953430,242.783432 446.932709,232.752899 445.830170,222.731689 
	C444.277191,208.616806 442.523956,194.522919 441.092590,180.396133 
	C440.426605,173.823227 440.515930,167.175476 439.904297,160.594971 
	C439.110046,152.049423 437.667328,143.558487 437.038086,135.004730 
	C436.325867,125.322266 436.205414,115.596260 435.888123,105.024254 
z"/>
<path fill="#454644" opacity="1.000000" stroke="none" 
	d="
M280.086121,463.852417 
	C266.104492,464.535553 252.126083,465.298492 238.139725,465.865143 
	C231.938293,466.116364 225.709183,465.745270 219.513565,466.063599 
	C212.102493,466.444458 204.723755,467.462708 197.312439,467.828583 
	C190.582397,468.160828 183.825363,467.900421 177.083908,468.057861 
	C165.213715,468.335052 153.348083,468.886566 141.477112,469.022430 
	C133.889236,469.109253 126.293137,468.710938 118.704369,468.431305 
	C107.409897,468.015137 96.118439,467.516846 84.826271,467.039978 
	C83.004311,466.963043 81.115913,467.087463 79.379692,466.643646 
	C75.972336,465.772552 74.623924,463.837585 76.778221,460.415131 
	C77.734673,458.895660 78.472839,457.199554 79.065170,455.498383 
	C80.263397,452.057190 79.089508,450.062988 75.283623,450.021240 
	C72.035080,449.985626 68.785820,450.013885 64.914818,450.013885 
	C64.914818,442.949341 65.080963,436.239532 64.875038,429.541138 
	C64.582024,420.010132 63.974964,410.489136 63.596519,400.960114 
	C63.508595,398.746155 63.886562,396.517731 63.904224,394.294800 
	C63.967468,386.334534 63.958218,378.373749 64.007263,370.413330 
	C64.012253,369.602814 64.303009,368.796112 64.329483,367.983337 
	C64.596100,359.797607 64.794930,351.609528 65.098038,343.425232 
	C65.264236,338.937561 65.070557,334.349365 65.957832,329.993683 
	C67.803963,320.930878 67.803833,311.949066 67.134995,302.766296 
	C66.732193,297.235901 68.412567,291.585388 68.690277,285.965790 
	C69.041420,278.860260 68.806679,271.727753 69.030083,264.613373 
	C69.260124,257.287476 69.814697,249.972061 70.072845,242.646622 
	C70.198456,239.082184 69.915054,235.505310 69.915771,231.934097 
	C69.917938,221.132706 70.332191,210.315872 69.874702,199.535233 
	C69.560135,192.122406 67.999649,184.767273 67.117477,177.371857 
	C66.615379,173.162567 66.348877,168.924896 65.991302,164.698730 
	C65.308357,156.626984 64.729652,148.545090 63.932411,140.484741 
	C63.180332,132.880997 62.084831,125.310783 61.360313,117.704872 
	C60.727863,111.065475 60.386383,104.397934 59.944489,97.740959 
	C59.504070,91.106140 58.862450,84.473412 58.738323,77.831741 
	C58.586819,69.725067 58.775074,61.605179 59.139923,53.505581 
	C59.179531,52.626312 61.308723,51.210152 62.552517,51.112652 
	C76.751076,49.999687 90.955063,48.836304 105.180809,48.238277 
	C112.768753,47.919292 120.401550,48.871128 128.014542,48.880234 
	C134.196838,48.887630 140.378937,48.324551 146.563217,48.063942 
	C147.702072,48.015949 148.849991,48.221657 149.995239,48.281002 
	C156.529419,48.619595 163.075073,48.808262 169.595779,49.317379 
	C177.953857,49.969959 186.284988,50.965389 194.641953,51.635849 
	C198.342957,51.932774 202.078690,51.828339 205.798965,51.847813 
	C216.263000,51.902592 226.764282,52.497391 237.181961,51.819691 
	C250.305740,50.965946 263.365479,49.099636 276.444916,47.600838 
	C286.619843,46.434875 296.801392,45.298439 306.944946,43.895454 
	C315.246124,42.747299 323.495667,41.225639 331.767456,39.865593 
	C331.929840,39.838898 332.081421,39.728031 332.242615,39.715618 
	C340.104767,39.110363 347.968353,38.523140 355.829224,37.901844 
	C357.296478,37.785877 358.757874,37.566750 360.213715,37.341763 
	C363.235718,36.874744 366.252197,36.372257 369.270844,35.883614 
	C372.642578,35.337826 376.014404,34.792519 379.385162,34.240891 
	C379.544952,34.214741 379.691406,34.092274 379.850159,34.076740 
	C387.248352,33.352982 394.663544,32.770828 402.041534,31.880812 
	C409.516724,30.979074 417.040131,30.161783 424.378357,28.557261 
	C428.847412,27.580086 431.913971,29.037413 432.086151,33.797760 
	C432.406982,42.667633 432.612488,51.541969 432.977905,60.409836 
	C433.223450,66.367493 433.661621,72.317200 433.760132,79.076874 
	C433.726532,87.790237 433.901672,95.699074 434.235931,103.601196 
	C434.269073,104.384903 435.273834,105.127510 435.827667,105.889191 
	C436.205414,115.596260 436.325867,125.322266 437.038086,135.004730 
	C437.667328,143.558487 439.110046,152.049423 439.904297,160.594971 
	C440.515930,167.175476 440.426605,173.823227 441.092590,180.396133 
	C442.523956,194.522919 444.277191,208.616806 445.830170,222.731689 
	C446.932709,232.752899 447.953430,242.783432 448.955475,252.815308 
	C450.004761,263.320251 451.084961,273.823547 451.971436,284.342804 
	C452.763306,293.739624 453.085358,303.179382 454.015747,312.560394 
	C455.480896,327.333679 457.313873,342.070160 458.921661,356.829803 
	C459.387299,361.104462 459.660553,365.402069 459.940796,369.694458 
	C460.318634,375.481262 456.220734,378.988647 452.928558,382.781281 
	C449.024597,387.278717 444.694458,391.404755 440.756744,395.874695 
	C437.519470,399.549500 437.699615,404.005219 438.396301,408.566864 
	C439.687347,417.020111 441.084961,425.475067 441.864471,433.981873 
	C442.349731,439.277954 439.259521,441.532288 433.598694,442.125092 
	C420.673584,443.478699 407.715118,444.734039 394.893860,446.797455 
	C382.282867,448.827026 369.833923,451.852264 357.296112,454.351288 
	C347.355316,456.332611 337.417725,458.360748 327.420654,460.017914 
	C321.272217,461.037109 315.014648,461.397705 308.100159,461.712952 
	C298.875824,461.669006 290.355896,461.935059 281.841888,462.329010 
	C281.234436,462.357056 280.670380,463.322723 280.086121,463.852417 
M76.409554,223.599609 
	C76.321129,235.084915 76.504822,246.579895 76.096207,258.053802 
	C74.501434,302.834930 72.589027,347.604980 71.078972,392.388763 
	C70.568466,407.528870 70.853271,422.697449 70.872711,437.852875 
	C70.879333,443.016907 72.968269,444.779175 77.690147,442.806488 
	C79.332474,442.120361 80.594444,438.702209 80.707703,436.464844 
	C81.640312,418.041260 82.868423,399.601288 82.848763,381.167480 
	C82.809708,344.560852 82.305756,307.948456 81.431686,271.351868 
	C81.046890,255.240875 79.287788,239.162720 78.437737,222.416107 
	C78.021370,216.922562 77.605011,211.429016 77.188644,205.935455 
	C76.697571,205.968094 76.206497,206.000732 75.715424,206.033371 
	C76.117401,211.668335 76.519371,217.303314 76.409554,223.599609 
M91.607628,344.020813 
	C91.650764,347.317841 91.693909,350.614899 91.429939,354.466949 
	C91.455597,355.085541 91.481255,355.704102 91.533127,357.099426 
	C91.578735,360.034637 91.624344,362.969849 91.318794,366.508087 
	C91.315956,367.422333 91.313118,368.336548 91.339211,370.051208 
	C91.376717,372.998566 91.414215,375.945892 91.158066,379.422729 
	C91.177216,380.017242 91.196358,380.611755 91.218185,382.117828 
	C91.251434,408.022705 91.225052,433.923248 84.886108,460.056580 
	C99.308960,460.552185 113.081863,461.473358 126.849136,461.395752 
	C148.643234,461.272919 170.442856,460.729858 192.223251,459.913605 
	C223.657013,458.735596 255.164505,458.174042 286.474731,455.446167 
	C315.431183,452.923340 344.169403,447.896149 373.824402,444.012299 
	C378.078552,443.193176 382.332703,442.374023 386.586823,441.554901 
	C386.481018,441.106293 386.375214,440.657684 386.269409,440.209076 
	C380.462921,440.984222 374.656403,441.759399 367.950287,442.637634 
	C330.575592,445.030426 293.201813,447.437683 255.825989,449.812317 
	C208.826874,452.798340 161.824097,455.726868 114.827805,458.756348 
	C106.189667,459.313171 105.297653,458.678772 105.122528,450.187988 
	C105.091644,448.690918 105.006706,447.192627 104.883232,445.700165 
	C103.238098,425.814911 101.727997,405.917084 99.889671,386.049622 
	C97.758881,363.021210 95.337242,340.019745 93.135017,316.078613 
	C92.771255,310.373596 92.407494,304.668579 92.043732,298.963562 
	C91.851913,298.979584 91.660088,298.995636 91.468269,299.011658 
	C91.468269,304.958557 91.468269,310.905487 91.435272,317.752655 
	C91.512726,320.135834 91.590172,322.519043 91.343010,325.532867 
	C91.384689,326.457764 91.426361,327.382629 91.522591,329.104889 
	C91.563591,333.362488 91.604584,337.620087 91.372223,342.127686 
	C91.336777,342.245758 91.247276,342.380005 91.276825,342.478607 
	C91.344147,342.703217 91.469856,342.910339 91.607628,344.020813 
M167.946014,56.033588 
	C135.421066,54.119541 102.931046,54.167656 70.000336,57.115452 
	C71.619850,63.636398 73.164665,69.402405 74.478691,75.220535 
	C83.598846,115.601852 87.183456,156.733429 90.943665,197.834305 
	C93.385597,224.525803 95.637215,251.234711 97.966881,277.936462 
	C102.337685,328.033020 106.683998,378.131775 111.092430,428.225006 
	C111.729546,435.464569 112.654495,442.678802 113.449654,449.935883 
	C116.553986,449.935883 118.869820,450.060394 121.168938,449.916931 
	C149.421204,448.154083 177.667953,446.301453 205.922333,444.573700 
	C237.502670,442.642517 269.091797,440.855164 300.672516,438.929474 
	C322.618927,437.591278 344.593231,436.517731 366.482697,434.529388 
	C375.645538,433.697113 384.705780,431.110901 393.630157,428.658112 
	C396.308777,427.921936 399.037445,425.369354 400.601471,422.919891 
	C407.618500,411.930450 410.532257,399.784302 409.329590,386.752594 
	C408.523376,378.017181 409.371033,376.882263 418.077515,378.112579 
	C429.400696,379.712677 439.405396,377.375275 448.518646,370.271179 
	C451.404388,368.021637 452.616821,365.966522 452.200653,362.413300 
	C450.439911,347.379547 448.696198,332.341217 447.209686,317.278534 
	C443.810944,282.839172 440.470947,248.393372 437.291016,213.933197 
	C434.891998,187.935699 432.530426,161.930161 430.605957,135.894669 
	C428.617126,108.987663 427.104828,82.044281 425.548859,55.107300 
	C425.187897,48.858398 425.495544,42.570881 425.495544,35.743092 
	C422.144958,35.954285 420.016052,35.974228 417.918121,36.239399 
	C405.053345,37.865456 392.197052,39.558426 379.335175,41.207527 
	C357.715363,43.979534 336.104858,46.829227 314.469147,49.471680 
	C292.837067,52.113693 271.185486,54.600761 249.530304,57.048458 
	C222.589600,60.093594 195.701324,57.753239 167.946014,56.033588 
M412.190125,437.703094 
	C418.444031,436.794983 424.713806,435.979004 430.939514,434.907104 
	C432.316437,434.670013 434.725281,433.362762 434.650940,432.826752 
	C433.637756,425.522186 432.270966,418.266632 430.792694,409.870880 
	C419.786743,421.932251 409.259094,433.251831 393.987091,438.613586 
	C400.062408,440.841766 405.630890,438.066528 412.190125,437.703094 
M422.936340,406.466370 
	C428.501160,399.913086 434.065979,393.359802 440.123413,386.226379 
	C431.474792,386.226379 424.514099,386.226379 417.896118,386.226379 
	C416.928925,395.394623 416.029846,403.917175 414.985321,413.818604 
	C418.144775,410.891571 420.278992,408.914368 422.936340,406.466370 
z"/>
<path fill="#6F7A7B" opacity="1.000000" stroke="none" 
	d="
M435.857910,105.456726 
	C435.273834,105.127510 434.269073,104.384903 434.235931,103.601196 
	C433.901672,95.699074 433.726532,87.790237 433.665894,79.528992 
	C434.512787,87.791214 435.200470,96.407730 435.857910,105.456726 
z"/>
<path fill="#687274" opacity="1.000000" stroke="none" 
	d="
M280.515625,463.883484 
	C280.670380,463.322723 281.234436,462.357056 281.841888,462.329010 
	C290.355896,461.935059 298.875824,461.669006 307.682495,461.667023 
	C298.962189,462.612976 289.953674,463.263794 280.515625,463.883484 
z"/>
<path fill="#F3F3CA" opacity="1.000000" stroke="none" 
	d="
M168.378464,56.052307 
	C195.701324,57.753239 222.589600,60.093594 249.530304,57.048458 
	C271.185486,54.600761 292.837067,52.113693 314.469147,49.471680 
	C336.104858,46.829227 357.715363,43.979534 379.335175,41.207527 
	C392.197052,39.558426 405.053345,37.865456 417.918121,36.239399 
	C420.016052,35.974228 422.144958,35.954285 425.495544,35.743092 
	C425.495544,42.570881 425.187897,48.858398 425.548859,55.107300 
	C427.104828,82.044281 428.617126,108.987663 430.605957,135.894669 
	C432.530426,161.930161 434.891998,187.935699 437.291016,213.933197 
	C440.470947,248.393372 443.810944,282.839172 447.209686,317.278534 
	C448.696198,332.341217 450.439911,347.379547 452.200653,362.413300 
	C452.616821,365.966522 451.404388,368.021637 448.518646,370.271179 
	C439.405396,377.375275 429.400696,379.712677 418.077515,378.112579 
	C409.371033,376.882263 408.523376,378.017181 409.329590,386.752594 
	C410.532257,399.784302 407.618500,411.930450 400.601471,422.919891 
	C399.037445,425.369354 396.308777,427.921936 393.630157,428.658112 
	C384.705780,431.110901 375.645538,433.697113 366.482697,434.529388 
	C344.593231,436.517731 322.618927,437.591278 300.672516,438.929474 
	C269.091797,440.855164 237.502670,442.642517 205.922333,444.573700 
	C177.667953,446.301453 149.421204,448.154083 121.168938,449.916931 
	C118.869820,450.060394 116.553986,449.935883 113.449654,449.935883 
	C112.654495,442.678802 111.729546,435.464569 111.092430,428.225006 
	C106.683998,378.131775 102.337685,328.033020 97.966881,277.936462 
	C95.637215,251.234711 93.385597,224.525803 90.943665,197.834305 
	C87.183456,156.733429 83.598846,115.601852 74.478691,75.220535 
	C73.164665,69.402405 71.619850,63.636398 70.000336,57.115452 
	C102.931046,54.167656 135.421066,54.119541 168.378464,56.052307 
M289.133484,330.428711 
	C285.883789,332.726654 282.634064,335.024628 279.384369,337.322571 
	C279.691223,338.087433 278.619171,337.061890 277.404633,336.249329 
	C270.852142,331.865601 264.030121,331.512909 257.146881,335.327759 
	C251.022568,338.722015 247.325699,343.842682 247.563461,351.067871 
	C247.877136,360.600403 251.215439,368.859558 258.372955,375.457977 
	C265.101196,381.660583 272.977844,384.583954 282.015076,386.062927 
	C292.273010,387.741699 296.506348,386.752838 301.835327,377.759369 
	C304.542297,373.190979 307.476074,368.600403 309.186340,363.633850 
	C311.929047,355.669159 314.182465,347.470856 315.810089,339.207306 
	C317.190063,332.201111 313.700958,326.764679 308.285339,327.068390 
	C302.085114,327.416077 295.954681,329.007690 289.133484,330.428711 
M247.303772,195.831650 
	C244.274628,197.528595 241.419495,199.951096 238.170273,200.730362 
	C234.492844,201.612320 234.534103,203.487259 235.177032,206.113037 
	C235.856079,208.886353 236.919174,211.142853 240.615128,210.245041 
	C248.498642,208.330002 254.557999,203.999802 258.259766,196.789795 
	C260.329041,192.759430 260.110077,188.635056 256.383057,185.462799 
	C252.899323,182.497589 249.221893,179.759949 244.969910,176.400879 
	C252.294891,174.678024 259.836243,172.904266 268.384399,170.893707 
	C268.768738,174.861679 269.519104,178.435959 269.357025,181.968369 
	C269.144287,186.605545 268.017456,191.195511 267.679535,195.834610 
	C267.530304,197.883286 267.911713,200.249069 268.889252,202.004883 
	C269.557098,203.204498 271.848114,204.414963 273.097351,204.146988 
	C274.691681,203.805023 277.043976,202.105927 277.202911,200.769760 
	C278.120056,193.058914 278.890289,185.281128 278.862579,177.529037 
	C278.849487,173.863480 277.689819,169.714554 275.683350,166.691483 
	C273.949738,164.079529 270.282837,162.750778 267.470551,160.854767 
	C266.720032,162.522522 265.969513,164.190277 265.110596,166.098923 
	C262.812653,162.227783 258.951294,161.207962 254.999496,162.965576 
	C246.865494,166.583267 238.816711,170.465927 231.087402,174.862808 
	C229.392853,175.826736 228.385971,179.417267 228.452545,181.758652 
	C228.583496,186.363586 231.446671,187.889175 237.457352,187.891098 
	C242.230316,187.892624 247.003159,188.171082 251.776062,188.326584 
	C251.900528,188.932068 252.024994,189.537567 252.149460,190.143051 
	C250.724213,191.888367 249.298981,193.633667 247.303772,195.831650 
M299.312531,172.764847 
	C296.188049,177.045258 292.950134,181.248535 289.972076,185.628510 
	C287.185028,189.727585 287.643738,194.510330 290.726501,197.600372 
	C292.665619,199.544052 297.295807,200.380569 300.106995,199.576096 
	C308.034821,197.307388 315.618256,193.856598 323.393677,191.026093 
	C328.099243,189.313080 327.467041,186.813293 325.017548,183.564331 
	C323.040771,180.942429 320.859467,181.601685 318.382324,182.502533 
	C312.758148,184.547821 307.085693,186.460281 301.432861,188.426727 
	C301.205109,188.021774 300.977325,187.616806 300.749542,187.211853 
	C301.772980,185.971176 302.782288,184.718491 303.822449,183.491989 
	C307.463409,179.198868 311.265167,175.030701 314.701660,170.580200 
	C316.528351,168.214508 318.130615,165.134506 315.434875,162.465378 
	C312.110016,159.173340 308.889191,155.028534 303.432159,155.761383 
	C298.053802,156.483643 292.654602,157.455490 287.479919,159.026978 
	C286.045471,159.462601 284.420197,162.486542 284.536194,164.211792 
	C284.894287,169.537964 287.973938,170.731781 293.879822,168.628143 
	C297.091736,167.484070 300.406982,166.630020 303.675598,165.645172 
	C303.822601,166.064270 303.969604,166.483368 304.116608,166.902466 
	C302.677094,168.678680 301.237610,170.454910 299.312531,172.764847 
M204.870438,207.442383 
	C207.641434,205.742508 210.412430,204.042633 213.695267,202.028763 
	C213.841675,203.920975 213.893143,204.883957 213.994370,205.841690 
	C214.391785,209.602066 217.707047,213.388138 220.291229,213.051636 
	C223.612701,212.619125 225.567276,208.825104 225.100540,204.505325 
	C224.877289,202.439224 225.263672,200.271225 225.602295,198.186478 
	C227.392319,187.166138 227.446091,176.682373 216.344452,168.564545 
	C215.796341,171.097473 215.013214,173.203049 214.950150,175.329956 
	C214.827606,179.463608 215.225113,183.611145 215.156815,187.748810 
	C215.134659,189.090820 214.720474,191.139786 213.816711,191.628586 
	C210.175232,193.598022 206.272156,195.083771 201.016586,197.381821 
	C203.231750,187.271927 201.456985,180.004044 192.935349,174.767563 
	C192.260757,176.872040 191.204727,178.787369 191.089523,180.757706 
	C190.500229,190.838135 189.805038,200.938812 189.980347,211.017929 
	C190.021393,213.377350 192.907318,216.801208 195.225571,217.609497 
	C196.732620,218.134964 199.836685,215.063416 201.739883,213.126495 
	C203.026093,211.817520 203.467529,209.678482 204.870438,207.442383 
M184.086853,214.446060 
	C184.725937,209.886459 182.209427,204.660889 186.927277,200.940384 
	C187.048965,200.844421 186.847900,200.339188 186.658142,199.158798 
	C178.187317,199.571274 176.408569,192.967422 174.533844,186.448868 
	C174.488007,186.289490 174.411896,186.139053 174.361572,185.980728 
	C172.188507,179.146576 171.595398,178.765747 165.370712,179.287201 
	C162.324982,182.358215 159.982666,184.759918 157.589813,187.110184 
	C156.794037,187.891800 155.341537,188.388046 155.083420,189.274979 
	C152.260864,198.973465 149.379456,208.667755 147.058380,218.491776 
	C146.310226,221.658356 148.715210,224.869507 151.939194,224.600800 
	C153.771988,224.448044 155.862885,221.318619 156.884583,219.092331 
	C158.078430,216.490921 158.234070,213.413071 159.057312,209.513123 
	C164.057693,217.393631 169.331421,209.902222 175.334656,211.197128 
	C173.660034,213.119919 172.513977,214.435806 171.357620,215.742737 
	C177.107208,222.014252 178.947800,222.205673 182.893250,216.911987 
	C183.287201,216.383392 183.550201,215.757248 184.086853,214.446060 
M151.789139,276.645691 
	C154.025711,284.325745 159.349762,288.208893 167.141495,288.309723 
	C171.726562,288.369110 176.489456,288.100250 180.844711,286.843536 
	C183.020737,286.215607 186.043015,282.894775 185.873474,281.050201 
	C185.602570,278.102600 182.495499,276.590149 178.942825,277.319611 
	C175.860733,277.952454 172.665756,278.601440 169.566879,278.426147 
	C166.507080,278.253052 163.505234,277.055328 160.477966,276.307129 
	C161.688324,273.379883 162.193970,269.750641 164.260406,267.676147 
	C168.178665,263.742706 173.113174,260.843994 177.381409,257.227356 
	C179.505875,255.427231 181.636658,253.207474 182.626068,250.723953 
	C182.977753,249.841171 180.152740,247.367889 178.441727,246.060684 
	C175.517319,243.826492 172.954208,245.147232 170.444656,247.292496 
	C167.048157,250.195938 163.111618,252.530045 160.003281,255.694366 
	C154.570862,261.224670 148.571289,266.778259 151.789139,276.645691 
M227.152512,277.434753 
	C230.923141,279.885803 232.317230,279.361450 233.248520,275.288361 
	C233.809875,272.833282 234.566696,270.422882 235.329865,267.650238 
	C237.492188,269.764587 239.014404,271.505737 240.786652,272.937317 
	C245.590454,276.817780 248.987091,276.377533 251.369507,270.721649 
	C253.101639,266.609497 253.545471,261.916046 254.274139,257.434692 
	C254.697083,254.833542 254.258942,252.088791 254.712494,249.496902 
	C255.867981,242.893661 254.558167,241.019043 246.994919,239.942459 
	C246.683746,244.233368 246.331131,248.487885 246.078766,252.748306 
	C245.829742,256.952393 245.858521,261.230988 241.014236,264.958557 
	C240.653595,260.108490 240.038956,256.226959 240.151321,252.366608 
	C240.338348,245.941376 238.561523,243.756088 231.348236,242.975891 
	C229.176498,250.558487 227.226990,258.273743 224.710281,265.799316 
	C223.283142,270.066742 223.697296,273.556488 227.152512,277.434753 
M307.382904,257.868988 
	C307.025055,259.321686 306.667175,260.774414 306.065491,263.216919 
	C307.552490,263.961334 310.212585,266.291138 311.443939,265.690735 
	C313.648743,264.615692 315.764160,262.016754 316.512634,259.616882 
	C317.576538,256.205475 317.371063,252.398254 317.756531,248.234940 
	C311.248413,248.571899 309.629486,242.855072 308.396271,237.469498 
	C307.268250,232.543381 304.567108,230.952026 300.819702,231.286499 
	C297.466095,234.737488 293.376221,237.229858 291.927917,240.795258 
	C288.952240,248.120667 287.116577,255.962570 285.474792,263.731995 
	C285.140533,265.313934 287.726196,267.512878 288.965790,269.427368 
	C290.584869,267.932037 292.700562,266.703369 293.686127,264.867889 
	C294.712616,262.956177 294.648529,260.458923 295.212738,257.395355 
	C299.370544,261.994385 302.929474,258.886505 307.382904,257.868988 
M206.750473,275.436432 
	C208.360474,274.896606 209.970490,274.356781 211.580490,273.816956 
	C211.786148,274.142273 211.991791,274.467621 212.197449,274.792938 
	C211.315979,276.035767 210.434509,277.278625 208.914474,279.421844 
	C211.410263,280.353149 214.289948,282.450897 215.715881,281.718445 
	C217.822525,280.636353 219.504242,277.727264 220.255386,275.258026 
	C221.202820,272.143494 221.031784,268.688721 221.405670,264.718231 
	C215.726257,264.557678 213.348526,259.566406 212.182816,253.968567 
	C211.125168,248.889679 208.477173,246.925659 203.497162,247.806152 
	C204.699097,249.029663 205.901016,250.253159 207.102951,251.476669 
	C203.217041,253.248703 197.277435,254.032761 195.854874,256.989868 
	C192.454697,264.057892 190.873520,272.087128 189.298737,279.878021 
	C188.963333,281.537384 191.777603,283.833405 193.140778,285.836090 
	C194.586212,284.283478 196.481949,282.947021 197.358200,281.121246 
	C198.357330,279.039459 198.447739,276.521515 198.734116,275.147614 
	C201.704971,275.396271 203.855423,275.576294 206.750473,275.436432 
M353.263184,180.697281 
	C350.102875,182.409592 346.942566,184.121887 343.535431,185.967926 
	C344.367676,188.505020 343.065216,193.065887 348.200134,192.147354 
	C355.328827,190.872147 360.936401,186.798782 363.415222,179.912811 
	C364.225037,177.663162 363.222717,173.875076 361.663239,171.866684 
	C359.332703,168.865250 355.775574,166.816193 352.293945,164.001160 
	C358.477142,162.449387 364.648987,160.900467 371.090179,159.283951 
	C366.509064,151.648239 365.023743,150.739990 358.136505,153.328278 
	C352.726959,155.361252 347.631500,158.282562 342.520966,161.039810 
	C339.210052,162.826141 337.137115,165.445206 338.435364,169.634354 
	C339.705963,173.734329 343.029663,173.249603 346.174225,173.389465 
	C350.009735,173.560028 353.840179,173.845428 357.672791,174.081161 
	C357.802429,174.595428 357.932098,175.109680 358.061737,175.623932 
	C356.660736,177.156158 355.259735,178.688370 353.263184,180.697281 
M332.907166,251.465973 
	C329.643982,253.309998 326.380768,255.154037 322.909088,257.115875 
	C322.868774,263.781067 325.040283,265.589661 330.981445,262.248260 
	C335.032379,259.970001 338.741455,256.591309 341.665894,252.951447 
	C344.212097,249.782288 344.016144,245.682266 340.484375,242.673553 
	C337.655334,240.263535 334.675751,238.030273 331.181152,235.256790 
	C337.367645,233.715820 343.545258,232.177078 349.916168,230.590179 
	C345.872681,223.104355 344.024353,222.032303 337.242035,224.585938 
	C331.842346,226.619019 326.723419,229.458694 321.625031,232.209335 
	C318.373688,233.963455 316.111938,236.535995 317.388397,240.740616 
	C318.678864,244.991333 322.134521,244.670303 325.485809,244.753448 
	C329.198730,244.845551 332.908417,245.067383 338.063141,245.297043 
	C335.860474,248.044785 334.670654,249.529037 332.907166,251.465973 
M264.938568,266.458832 
	C265.346161,267.174347 265.595642,268.083954 266.191040,268.568970 
	C267.964630,270.013794 269.874054,271.291901 271.730408,272.635132 
	C272.800903,270.778351 273.911865,268.943237 274.923645,267.054962 
	C275.382660,266.198303 275.589569,265.210175 276.005310,264.326080 
	C279.449951,257.001038 283.235840,249.811356 286.180695,242.291779 
	C287.055573,240.057907 286.555176,235.697739 284.981232,234.434326 
	C282.016449,232.054474 280.057526,235.328629 278.753784,237.857437 
	C275.902161,243.388580 273.193695,248.993530 270.149170,255.127655 
	C269.475922,252.884140 269.174255,251.063339 268.400452,249.472122 
	C266.844788,246.273010 265.218811,243.071655 263.223511,240.142563 
	C262.523956,239.115585 260.655792,238.884659 259.321259,238.290237 
	C258.937988,239.811874 257.933075,241.492081 258.274109,242.828964 
	C260.233826,250.511246 262.512543,258.112152 264.938568,266.458832 
M326.213593,162.661148 
	C326.394043,166.130981 326.003326,169.771545 326.970337,173.006241 
	C327.545166,174.929108 330.256927,176.213150 332.007935,177.784409 
	C332.890747,176.121201 334.287994,174.537094 334.558167,172.779724 
	C335.314056,167.863129 335.336823,162.831009 336.142822,157.925644 
	C337.244415,151.221512 335.177338,149.125824 327.892944,150.471817 
	C327.361542,154.178467 326.819580,157.958481 326.213593,162.661148 
M376.372681,209.389801 
	C375.119812,211.133850 372.954437,212.790146 372.776794,214.637619 
	C372.113068,221.538239 372.106598,228.501724 371.840759,235.441147 
	C371.741272,238.036987 372.316315,240.108398 375.439667,240.304871 
	C378.843994,240.519028 379.748993,238.196716 379.912354,235.539078 
	C380.208099,230.726852 380.102325,225.888062 380.456360,221.081879 
	C380.772400,216.791962 380.252441,212.906143 376.372681,209.389801 
M380.069550,247.633331 
	C378.547119,247.015915 376.753662,245.575180 375.563416,245.966965 
	C373.597351,246.614120 370.434052,248.712936 370.604828,249.720398 
	C370.978485,251.924774 373.127411,253.828232 374.551208,255.854614 
	C376.351929,254.543594 378.329224,253.405609 379.866394,251.836411 
	C380.481384,251.208603 380.126556,249.630783 380.069550,247.633331 
z"/>
<path fill="#E3E390" opacity="1.000000" stroke="none" 
	d="
M91.645584,341.877686 
	C91.604584,337.620087 91.563591,333.362488 91.641670,328.386627 
	C91.729706,326.746307 91.698662,325.824280 91.667618,324.902222 
	C91.590172,322.519043 91.512726,320.135834 91.842682,317.366302 
	C92.514008,316.988831 92.777939,316.997681 93.041862,317.006561 
	C95.337242,340.019745 97.758881,363.021210 99.889671,386.049622 
	C101.727997,405.917084 103.238098,425.814911 104.883232,445.700165 
	C105.006706,447.192627 105.091644,448.690918 105.122528,450.187988 
	C105.297653,458.678772 106.189667,459.313171 114.827805,458.756348 
	C161.824097,455.726868 208.826874,452.798340 255.825989,449.812317 
	C293.201813,447.437683 330.575592,445.030426 368.766113,442.700714 
	C370.722534,443.166504 371.863129,443.569214 373.003754,443.971924 
	C344.169403,447.896149 315.431183,452.923340 286.474731,455.446167 
	C255.164505,458.174042 223.657013,458.735596 192.223251,459.913605 
	C170.442856,460.729858 148.643234,461.272919 126.849136,461.395752 
	C113.081863,461.473358 99.308960,460.552185 84.886108,460.056580 
	C91.225052,433.923248 91.251434,408.022705 91.365166,381.394653 
	C91.492004,380.078766 91.471870,379.485992 91.451721,378.893250 
	C91.414215,375.945892 91.376717,372.998566 91.489822,369.344971 
	C91.650269,367.727478 91.660110,366.816284 91.669952,365.905060 
	C91.624344,362.969849 91.578735,360.034637 91.674622,356.434875 
	C91.789772,355.150848 91.763412,354.531403 91.737053,353.911926 
	C91.693909,350.614899 91.650764,347.317841 91.686752,343.265442 
	C91.725777,342.299286 91.685677,342.088501 91.645584,341.877686 
z"/>
<path fill="#C2C26E" opacity="1.000000" stroke="none" 
	d="
M78.152649,223.069656 
	C79.287788,239.162720 81.046890,255.240875 81.431686,271.351868 
	C82.305756,307.948456 82.809708,344.560852 82.848763,381.167480 
	C82.868423,399.601288 81.640312,418.041260 80.707703,436.464844 
	C80.594444,438.702209 79.332474,442.120361 77.690147,442.806488 
	C72.968269,444.779175 70.879333,443.016907 70.872711,437.852875 
	C70.853271,422.697449 70.568466,407.528870 71.078972,392.388763 
	C72.589027,347.604980 74.501434,302.834930 76.096207,258.053802 
	C76.504822,246.579895 76.321129,235.084915 76.973305,223.303070 
	C77.742256,223.027557 77.947456,223.048615 78.152649,223.069656 
z"/>
<path fill="#E5E590" opacity="1.000000" stroke="none" 
	d="
M411.756134,437.777191 
	C405.630890,438.066528 400.062408,440.841766 393.987091,438.613586 
	C409.259094,433.251831 419.786743,421.932251 430.792694,409.870880 
	C432.270966,418.266632 433.637756,425.522186 434.650940,432.826752 
	C434.725281,433.362762 432.316437,434.670013 430.939514,434.907104 
	C424.713806,435.979004 418.444031,436.794983 411.756134,437.777191 
z"/>
<path fill="#C0BF6E" opacity="1.000000" stroke="none" 
	d="
M422.674774,406.701782 
	C420.278992,408.914368 418.144775,410.891571 414.985321,413.818604 
	C416.029846,403.917175 416.928925,395.394623 417.896118,386.226379 
	C424.514099,386.226379 431.474792,386.226379 440.123413,386.226379 
	C434.065979,393.359802 428.501160,399.913086 422.674774,406.701782 
z"/>
<path fill="#5D6667" opacity="1.000000" stroke="none" 
	d="
M78.295197,222.742889 
	C77.947456,223.048615 77.742256,223.027557 77.229202,222.972412 
	C76.519371,217.303314 76.117401,211.668335 75.715424,206.033371 
	C76.206497,206.000732 76.697571,205.968094 77.188644,205.935455 
	C77.605011,211.429016 78.021370,216.922562 78.295197,222.742889 
z"/>
<path fill="#7D826F" opacity="1.000000" stroke="none" 
	d="
M93.088440,316.542603 
	C92.777939,316.997681 92.514008,316.988831 91.859177,316.916168 
	C91.468269,310.905487 91.468269,304.958557 91.468269,299.011658 
	C91.660088,298.995636 91.851913,298.979584 92.043732,298.963562 
	C92.407494,304.668579 92.771255,310.373596 93.088440,316.542603 
z"/>
<path fill="#848F87" opacity="1.000000" stroke="none" 
	d="
M373.414062,443.992126 
	C371.863129,443.569214 370.722534,443.166504 369.215942,442.649170 
	C374.656403,441.759399 380.462921,440.984222 386.269409,440.209076 
	C386.375214,440.657684 386.481018,441.106293 386.586823,441.554901 
	C382.332703,442.374023 378.078552,443.193176 373.414062,443.992126 
z"/>
<path fill="#7D826F" opacity="1.000000" stroke="none" 
	d="
M91.494370,366.206573 
	C91.660110,366.816284 91.650269,367.727478 91.475349,368.944763 
	C91.313118,368.336548 91.315956,367.422333 91.494370,366.206573 
z"/>
<path fill="#7D826F" opacity="1.000000" stroke="none" 
	d="
M91.505318,325.217529 
	C91.698662,325.824280 91.729706,326.746307 91.614395,327.987946 
	C91.426361,327.382629 91.384689,326.457764 91.505318,325.217529 
z"/>
<path fill="#7D826F" opacity="1.000000" stroke="none" 
	d="
M91.583496,354.189453 
	C91.763412,354.531403 91.789772,355.150848 91.661522,356.046509 
	C91.481255,355.704102 91.455597,355.085541 91.583496,354.189453 
z"/>
<path fill="#7D826F" opacity="1.000000" stroke="none" 
	d="
M91.304901,379.157990 
	C91.471870,379.485992 91.492004,380.078766 91.363823,380.938904 
	C91.196358,380.611755 91.177216,380.017242 91.304901,379.157990 
z"/>
<path fill="#7D826F" opacity="1.000000" stroke="none" 
	d="
M91.508904,342.002686 
	C91.685677,342.088501 91.725777,342.299286 91.668854,342.817322 
	C91.469856,342.910339 91.344147,342.703217 91.276825,342.478607 
	C91.247276,342.380005 91.336777,342.245758 91.508904,342.002686 
z"/>
<path fill="#CF3F3C" opacity="1.000000" stroke="none" 
	d="
M289.463684,330.243805 
	C295.954681,329.007690 302.085114,327.416077 308.285339,327.068390 
	C313.700958,326.764679 317.190063,332.201111 315.810089,339.207306 
	C314.182465,347.470856 311.929047,355.669159 309.186340,363.633850 
	C307.476074,368.600403 304.542297,373.190979 301.835327,377.759369 
	C296.506348,386.752838 292.273010,387.741699 282.015076,386.062927 
	C272.977844,384.583954 265.101196,381.660583 258.372955,375.457977 
	C251.215439,368.859558 247.877136,360.600403 247.563461,351.067871 
	C247.325699,343.842682 251.022568,338.722015 257.146881,335.327759 
	C264.030121,331.512909 270.852142,331.865601 277.404633,336.249329 
	C278.619171,337.061890 279.691223,338.087433 279.384369,337.322571 
	C282.634064,335.024628 285.883789,332.726654 289.463684,330.243805 
M300.243866,369.163605 
	C296.970612,372.977356 293.697388,376.791107 290.424133,380.604858 
	C295.947968,378.633484 299.087280,374.361237 301.912567,369.059387 
	C301.856720,368.812195 301.800903,368.565033 301.745056,368.317841 
	C301.431915,368.477936 301.118805,368.638062 300.243866,369.163605 
M304.732605,337.083496 
	C305.082062,337.142761 305.431519,337.202026 305.780975,337.261261 
	C305.604980,336.762512 305.428986,336.263794 304.980499,335.121307 
	C300.537811,331.162964 296.638489,331.173096 293.178497,334.604675 
	C296.638184,335.256500 300.506256,335.985260 304.732605,337.083496 
M272.567169,343.596985 
	C268.372772,342.300323 263.554718,339.401276 259.983276,343.031952 
	C256.084167,346.995758 257.104828,352.639404 258.771393,357.694000 
	C259.336151,359.406860 259.960724,361.371765 261.199249,362.543884 
	C266.740723,367.788177 272.255890,373.122589 278.286682,377.767273 
	C282.895386,381.316681 286.231567,380.495270 289.763336,375.638275 
	C293.371399,370.676270 296.899811,365.584229 299.772522,360.181915 
	C302.152039,355.707062 304.278137,350.832458 305.162872,345.892517 
	C306.362854,339.192474 300.900940,335.121857 294.461487,337.468933 
	C288.223877,339.742432 283.618896,343.833679 282.087677,350.671967 
	C281.619293,352.763611 281.077332,354.838745 280.569061,356.921448 
	C280.107269,356.925110 279.645508,356.928802 279.183746,356.932465 
	C277.983795,352.210663 280.414215,345.644531 272.567169,343.596985 
M264.452606,373.071106 
	C259.757568,367.911102 255.062515,362.751129 250.650436,357.902100 
	C251.224625,369.142181 267.609253,382.640472 275.118744,381.123627 
	C271.577301,378.464996 268.287415,375.995209 264.452606,373.071106 
z"/>
<path fill="#444443" opacity="1.000000" stroke="none" 
	d="
M247.588745,195.605316 
	C249.298981,193.633667 250.724213,191.888367 252.149460,190.143051 
	C252.024994,189.537567 251.900528,188.932068 251.776062,188.326584 
	C247.003159,188.171082 242.230316,187.892624 237.457352,187.891098 
	C231.446671,187.889175 228.583496,186.363586 228.452545,181.758652 
	C228.385971,179.417267 229.392853,175.826736 231.087402,174.862808 
	C238.816711,170.465927 246.865494,166.583267 254.999496,162.965576 
	C258.951294,161.207962 262.812653,162.227783 265.110596,166.098923 
	C265.969513,164.190277 266.720032,162.522522 267.470551,160.854767 
	C270.282837,162.750778 273.949738,164.079529 275.683350,166.691483 
	C277.689819,169.714554 278.849487,173.863480 278.862579,177.529037 
	C278.890289,185.281128 278.120056,193.058914 277.202911,200.769760 
	C277.043976,202.105927 274.691681,203.805023 273.097351,204.146988 
	C271.848114,204.414963 269.557098,203.204498 268.889252,202.004883 
	C267.911713,200.249069 267.530304,197.883286 267.679535,195.834610 
	C268.017456,191.195511 269.144287,186.605545 269.357025,181.968369 
	C269.519104,178.435959 268.768738,174.861679 268.384399,170.893707 
	C259.836243,172.904266 252.294891,174.678024 244.969910,176.400879 
	C249.221893,179.759949 252.899323,182.497589 256.383057,185.462799 
	C260.110077,188.635056 260.329041,192.759430 258.259766,196.789795 
	C254.557999,203.999802 248.498642,208.330002 240.615128,210.245041 
	C236.919174,211.142853 235.856079,208.886353 235.177032,206.113037 
	C234.534103,203.487259 234.492844,201.612320 238.170273,200.730362 
	C241.419495,199.951096 244.274628,197.528595 247.588745,195.605316 
z"/>
<path fill="#434342" opacity="1.000000" stroke="none" 
	d="
M299.555328,172.497986 
	C301.237610,170.454910 302.677094,168.678680 304.116608,166.902466 
	C303.969604,166.483368 303.822601,166.064270 303.675598,165.645172 
	C300.406982,166.630020 297.091736,167.484070 293.879822,168.628143 
	C287.973938,170.731781 284.894287,169.537964 284.536194,164.211792 
	C284.420197,162.486542 286.045471,159.462601 287.479919,159.026978 
	C292.654602,157.455490 298.053802,156.483643 303.432159,155.761383 
	C308.889191,155.028534 312.110016,159.173340 315.434875,162.465378 
	C318.130615,165.134506 316.528351,168.214508 314.701660,170.580200 
	C311.265167,175.030701 307.463409,179.198868 303.822449,183.491989 
	C302.782288,184.718491 301.772980,185.971176 300.749542,187.211853 
	C300.977325,187.616806 301.205109,188.021774 301.432861,188.426727 
	C307.085693,186.460281 312.758148,184.547821 318.382324,182.502533 
	C320.859467,181.601685 323.040771,180.942429 325.017548,183.564331 
	C327.467041,186.813293 328.099243,189.313080 323.393677,191.026093 
	C315.618256,193.856598 308.034821,197.307388 300.106995,199.576096 
	C297.295807,200.380569 292.665619,199.544052 290.726501,197.600372 
	C287.643738,194.510330 287.185028,189.727585 289.972076,185.628510 
	C292.950134,181.248535 296.188049,177.045258 299.555328,172.497986 
z"/>
<path fill="#444443" opacity="1.000000" stroke="none" 
	d="
M204.578629,207.676544 
	C203.467529,209.678482 203.026093,211.817520 201.739883,213.126495 
	C199.836685,215.063416 196.732620,218.134964 195.225571,217.609497 
	C192.907318,216.801208 190.021393,213.377350 189.980347,211.017929 
	C189.805038,200.938812 190.500229,190.838135 191.089523,180.757706 
	C191.204727,178.787369 192.260757,176.872040 192.935349,174.767563 
	C201.456985,180.004044 203.231750,187.271927 201.016586,197.381821 
	C206.272156,195.083771 210.175232,193.598022 213.816711,191.628586 
	C214.720474,191.139786 215.134659,189.090820 215.156815,187.748810 
	C215.225113,183.611145 214.827606,179.463608 214.950150,175.329956 
	C215.013214,173.203049 215.796341,171.097473 216.344452,168.564545 
	C227.446091,176.682373 227.392319,187.166138 225.602295,198.186478 
	C225.263672,200.271225 224.877289,202.439224 225.100540,204.505325 
	C225.567276,208.825104 223.612701,212.619125 220.291229,213.051636 
	C217.707047,213.388138 214.391785,209.602066 213.994370,205.841690 
	C213.893143,204.883957 213.841675,203.920975 213.695267,202.028763 
	C210.412430,204.042633 207.641434,205.742508 204.578629,207.676544 
z"/>
<path fill="#434342" opacity="1.000000" stroke="none" 
	d="
M183.980423,214.811218 
	C183.550201,215.757248 183.287201,216.383392 182.893250,216.911987 
	C178.947800,222.205673 177.107208,222.014252 171.362762,215.747223 
	C172.513977,214.435806 173.660034,213.119919 175.334656,211.197128 
	C169.331421,209.902222 164.057693,217.393631 159.057312,209.513123 
	C158.234070,213.413071 158.078430,216.490921 156.884583,219.092331 
	C155.862885,221.318619 153.771988,224.448044 151.939194,224.600800 
	C148.715210,224.869507 146.310226,221.658356 147.058380,218.491776 
	C149.379456,208.667755 152.260864,198.973465 155.083420,189.274979 
	C155.341537,188.388046 156.794037,187.891800 157.589813,187.110184 
	C159.982666,184.759918 162.324982,182.358215 165.370712,179.287201 
	C171.595398,178.765747 172.188507,179.146576 174.361572,185.980728 
	C174.411896,186.139053 174.488007,186.289490 174.533844,186.448868 
	C176.408569,192.967422 178.187317,199.571274 186.658142,199.158798 
	C186.847900,200.339188 187.048965,200.844421 186.927277,200.940384 
	C182.209427,204.660889 184.725937,209.886459 183.980423,214.811218 
M163.499390,203.997925 
	C165.589767,203.312271 167.680130,202.626633 169.984970,201.870636 
	C168.686096,199.008789 167.659454,196.746735 166.632797,194.484695 
	C166.105423,194.468918 165.578049,194.453140 165.050690,194.437363 
	C164.255402,197.636658 163.460129,200.835953 163.499390,203.997925 
z"/>
<path fill="#444443" opacity="1.000000" stroke="none" 
	d="
M151.653793,276.287537 
	C148.571289,266.778259 154.570862,261.224670 160.003281,255.694366 
	C163.111618,252.530045 167.048157,250.195938 170.444656,247.292496 
	C172.954208,245.147232 175.517319,243.826492 178.441727,246.060684 
	C180.152740,247.367889 182.977753,249.841171 182.626068,250.723953 
	C181.636658,253.207474 179.505875,255.427231 177.381409,257.227356 
	C173.113174,260.843994 168.178665,263.742706 164.260406,267.676147 
	C162.193970,269.750641 161.688324,273.379883 160.477966,276.307129 
	C163.505234,277.055328 166.507080,278.253052 169.566879,278.426147 
	C172.665756,278.601440 175.860733,277.952454 178.942825,277.319611 
	C182.495499,276.590149 185.602570,278.102600 185.873474,281.050201 
	C186.043015,282.894775 183.020737,286.215607 180.844711,286.843536 
	C176.489456,288.100250 171.726562,288.369110 167.141495,288.309723 
	C159.349762,288.208893 154.025711,284.325745 151.653793,276.287537 
z"/>
<path fill="#444443" opacity="1.000000" stroke="none" 
	d="
M226.903702,277.131592 
	C223.697296,273.556488 223.283142,270.066742 224.710281,265.799316 
	C227.226990,258.273743 229.176498,250.558487 231.348236,242.975891 
	C238.561523,243.756088 240.338348,245.941376 240.151321,252.366608 
	C240.038956,256.226959 240.653595,260.108490 241.014236,264.958557 
	C245.858521,261.230988 245.829742,256.952393 246.078766,252.748306 
	C246.331131,248.487885 246.683746,244.233368 246.994919,239.942459 
	C254.558167,241.019043 255.867981,242.893661 254.712494,249.496902 
	C254.258942,252.088791 254.697083,254.833542 254.274139,257.434692 
	C253.545471,261.916046 253.101639,266.609497 251.369507,270.721649 
	C248.987091,276.377533 245.590454,276.817780 240.786652,272.937317 
	C239.014404,271.505737 237.492188,269.764587 235.329865,267.650238 
	C234.566696,270.422882 233.809875,272.833282 233.248520,275.288361 
	C232.317230,279.361450 230.923141,279.885803 226.903702,277.131592 
z"/>
<path fill="#454543" opacity="1.000000" stroke="none" 
	d="
M306.975952,257.878632 
	C302.929474,258.886505 299.370544,261.994385 295.212738,257.395355 
	C294.648529,260.458923 294.712616,262.956177 293.686127,264.867889 
	C292.700562,266.703369 290.584869,267.932037 288.965790,269.427368 
	C287.726196,267.512878 285.140533,265.313934 285.474792,263.731995 
	C287.116577,255.962570 288.952240,248.120667 291.927917,240.795258 
	C293.376221,237.229858 297.466095,234.737488 300.819702,231.286499 
	C304.567108,230.952026 307.268250,232.543381 308.396271,237.469498 
	C309.629486,242.855072 311.248413,248.571899 317.756531,248.234940 
	C317.371063,252.398254 317.576538,256.205475 316.512634,259.616882 
	C315.764160,262.016754 313.648743,264.615692 311.443939,265.690735 
	C310.212585,266.291138 307.552490,263.961334 306.065491,263.216919 
	C306.667175,260.774414 307.025055,259.321686 306.975952,257.878632 
M302.343170,245.538895 
	C301.805603,245.340866 300.832275,244.907639 300.793793,244.978973 
	C299.646576,247.104523 298.591919,249.280045 296.973083,252.561783 
	C300.097321,251.751587 302.056641,251.243484 304.378937,250.641266 
	C303.732544,248.889618 303.229828,247.527374 302.343170,245.538895 
z"/>
<path fill="#454543" opacity="1.000000" stroke="none" 
	d="
M206.378174,275.596375 
	C203.855423,275.576294 201.704971,275.396271 198.734116,275.147614 
	C198.447739,276.521515 198.357330,279.039459 197.358200,281.121246 
	C196.481949,282.947021 194.586212,284.283478 193.140778,285.836090 
	C191.777603,283.833405 188.963333,281.537384 189.298737,279.878021 
	C190.873520,272.087128 192.454697,264.057892 195.854874,256.989868 
	C197.277435,254.032761 203.217041,253.248703 207.102951,251.476669 
	C205.901016,250.253159 204.699097,249.029663 203.497162,247.806152 
	C208.477173,246.925659 211.125168,248.889679 212.182816,253.968567 
	C213.348526,259.566406 215.726257,264.557678 221.405670,264.718231 
	C221.031784,268.688721 221.202820,272.143494 220.255386,275.258026 
	C219.504242,277.727264 217.822525,280.636353 215.715881,281.718445 
	C214.289948,282.450897 211.410263,280.353149 208.914474,279.421844 
	C210.434509,277.278625 211.315979,276.035767 212.197449,274.792938 
	C211.991791,274.467621 211.786148,274.142273 211.580490,273.816956 
	C209.970490,274.356781 208.360474,274.896606 206.378174,275.596375 
M207.542130,264.919617 
	C206.856171,263.535675 206.170197,262.151764 204.987640,259.765961 
	C203.452744,263.156982 202.331543,265.634033 201.210358,268.111053 
	C201.548431,268.431763 201.886505,268.752502 202.224579,269.073212 
	C204.094620,267.918915 205.964661,266.764618 207.542130,264.919617 
z"/>
<path fill="#454544" opacity="1.000000" stroke="none" 
	d="
M353.560974,180.458939 
	C355.259735,178.688370 356.660736,177.156158 358.061737,175.623932 
	C357.932098,175.109680 357.802429,174.595428 357.672791,174.081161 
	C353.840179,173.845428 350.009735,173.560028 346.174225,173.389465 
	C343.029663,173.249603 339.705963,173.734329 338.435364,169.634354 
	C337.137115,165.445206 339.210052,162.826141 342.520966,161.039810 
	C347.631500,158.282562 352.726959,155.361252 358.136505,153.328278 
	C365.023743,150.739990 366.509064,151.648239 371.090179,159.283951 
	C364.648987,160.900467 358.477142,162.449387 352.293945,164.001160 
	C355.775574,166.816193 359.332703,168.865250 361.663239,171.866684 
	C363.222717,173.875076 364.225037,177.663162 363.415222,179.912811 
	C360.936401,186.798782 355.328827,190.872147 348.200134,192.147354 
	C343.065216,193.065887 344.367676,188.505020 343.535431,185.967926 
	C346.942566,184.121887 350.102875,182.409592 353.560974,180.458939 
z"/>
<path fill="#454544" opacity="1.000000" stroke="none" 
	d="
M333.194000,251.239624 
	C334.670654,249.529037 335.860474,248.044785 338.063141,245.297043 
	C332.908417,245.067383 329.198730,244.845551 325.485809,244.753448 
	C322.134521,244.670303 318.678864,244.991333 317.388397,240.740616 
	C316.111938,236.535995 318.373688,233.963455 321.625031,232.209335 
	C326.723419,229.458694 331.842346,226.619019 337.242035,224.585938 
	C344.024353,222.032303 345.872681,223.104355 349.916168,230.590179 
	C343.545258,232.177078 337.367645,233.715820 331.181152,235.256790 
	C334.675751,238.030273 337.655334,240.263535 340.484375,242.673553 
	C344.016144,245.682266 344.212097,249.782288 341.665894,252.951447 
	C338.741455,256.591309 335.032379,259.970001 330.981445,262.248260 
	C325.040283,265.589661 322.868774,263.781067 322.909088,257.115875 
	C326.380768,255.154037 329.643982,253.309998 333.194000,251.239624 
z"/>
<path fill="#444443" opacity="1.000000" stroke="none" 
	d="
M264.810791,266.099731 
	C262.512543,258.112152 260.233826,250.511246 258.274109,242.828964 
	C257.933075,241.492081 258.937988,239.811874 259.321259,238.290237 
	C260.655792,238.884659 262.523956,239.115585 263.223511,240.142563 
	C265.218811,243.071655 266.844788,246.273010 268.400452,249.472122 
	C269.174255,251.063339 269.475922,252.884140 270.149170,255.127655 
	C273.193695,248.993530 275.902161,243.388580 278.753784,237.857437 
	C280.057526,235.328629 282.016449,232.054474 284.981232,234.434326 
	C286.555176,235.697739 287.055573,240.057907 286.180695,242.291779 
	C283.235840,249.811356 279.449951,257.001038 276.005310,264.326080 
	C275.589569,265.210175 275.382660,266.198303 274.923645,267.054962 
	C273.911865,268.943237 272.800903,270.778351 271.730408,272.635132 
	C269.874054,271.291901 267.964630,270.013794 266.191040,268.568970 
	C265.595642,268.083954 265.346161,267.174347 264.810791,266.099731 
z"/>
<path fill="#464645" opacity="1.000000" stroke="none" 
	d="
M326.245605,162.199829 
	C326.819580,157.958481 327.361542,154.178467 327.892944,150.471817 
	C335.177338,149.125824 337.244415,151.221512 336.142822,157.925644 
	C335.336823,162.831009 335.314056,167.863129 334.558167,172.779724 
	C334.287994,174.537094 332.890747,176.121201 332.007935,177.784409 
	C330.256927,176.213150 327.545166,174.929108 326.970337,173.006241 
	C326.003326,169.771545 326.394043,166.130981 326.245605,162.199829 
z"/>
<path fill="#434342" opacity="1.000000" stroke="none" 
	d="
M376.671967,209.592926 
	C380.252441,212.906143 380.772400,216.791962 380.456360,221.081879 
	C380.102325,225.888062 380.208099,230.726852 379.912354,235.539078 
	C379.748993,238.196716 378.843994,240.519028 375.439667,240.304871 
	C372.316315,240.108398 371.741272,238.036987 371.840759,235.441147 
	C372.106598,228.501724 372.113068,221.538239 372.776794,214.637619 
	C372.954437,212.790146 375.119812,211.133850 376.671967,209.592926 
z"/>
<path fill="#464644" opacity="1.000000" stroke="none" 
	d="
M380.141357,248.059357 
	C380.126556,249.630783 380.481384,251.208603 379.866394,251.836411 
	C378.329224,253.405609 376.351929,254.543594 374.551208,255.854614 
	C373.127411,253.828232 370.978485,251.924774 370.604828,249.720398 
	C370.434052,248.712936 373.597351,246.614120 375.563416,245.966965 
	C376.753662,245.575180 378.547119,247.015915 380.141357,248.059357 
z"/>
<path fill="#F3F1C9" opacity="1.000000" stroke="none" 
	d="
M272.917755,343.770172 
	C280.414215,345.644531 277.983795,352.210663 279.183746,356.932465 
	C279.645508,356.928802 280.107269,356.925110 280.569061,356.921448 
	C281.077332,354.838745 281.619293,352.763611 282.087677,350.671967 
	C283.618896,343.833679 288.223877,339.742432 294.461487,337.468933 
	C300.900940,335.121857 306.362854,339.192474 305.162872,345.892517 
	C304.278137,350.832458 302.152039,355.707062 299.772522,360.181915 
	C296.899811,365.584229 293.371399,370.676270 289.763336,375.638275 
	C286.231567,380.495270 282.895386,381.316681 278.286682,377.767273 
	C272.255890,373.122589 266.740723,367.788177 261.199249,362.543884 
	C259.960724,361.371765 259.336151,359.406860 258.771393,357.694000 
	C257.104828,352.639404 256.084167,346.995758 259.983276,343.031952 
	C263.554718,339.401276 268.372772,342.300323 272.917755,343.770172 
z"/>
<path fill="#F1E5BF" opacity="1.000000" stroke="none" 
	d="
M264.725098,373.298279 
	C268.287415,375.995209 271.577301,378.464996 275.118744,381.123627 
	C267.609253,382.640472 251.224625,369.142181 250.650436,357.902100 
	C255.062515,362.751129 259.757568,367.911102 264.725098,373.298279 
z"/>
<path fill="#EFDAB6" opacity="1.000000" stroke="none" 
	d="
M304.374329,336.713989 
	C300.506256,335.985260 296.638184,335.256500 293.178497,334.604675 
	C296.638489,331.173096 300.537811,331.162964 304.895020,335.678467 
	C304.664459,336.395111 304.519379,336.554535 304.374329,336.713989 
z"/>
<path fill="#EED9B6" opacity="1.000000" stroke="none" 
	d="
M301.641113,369.515808 
	C299.087280,374.361237 295.947968,378.633484 290.424133,380.604858 
	C293.697388,376.791107 296.970612,372.977356 300.729767,369.164795 
	C301.357452,369.282562 301.499268,369.399170 301.641113,369.515808 
z"/>
<path fill="#EFDAB6" opacity="1.000000" stroke="none" 
	d="
M305.031250,336.000366 
	C305.428986,336.263794 305.604980,336.762512 305.780975,337.261261 
	C305.431519,337.202026 305.082062,337.142761 304.553467,336.898743 
	C304.519379,336.554535 304.664459,336.395111 305.031250,336.000366 
z"/>
<path fill="#EED9B6" opacity="1.000000" stroke="none" 
	d="
M301.010681,368.982086 
	C301.118805,368.638062 301.431915,368.477936 301.745056,368.317841 
	C301.800903,368.565033 301.856720,368.812195 301.776855,369.287598 
	C301.499268,369.399170 301.357452,369.282562 301.010681,368.982086 
z"/>
<path fill="#E4E4BE" opacity="1.000000" stroke="none" 
	d="
M163.082123,204.016571 
	C163.460129,200.835953 164.255402,197.636658 165.050690,194.437363 
	C165.578049,194.453140 166.105423,194.468918 166.632797,194.484695 
	C167.659454,196.746735 168.686096,199.008789 169.984970,201.870636 
	C167.680130,202.626633 165.589767,203.312271 163.082123,204.016571 
z"/>
<path fill="#E5E5BF" opacity="1.000000" stroke="none" 
	d="
M302.535156,245.852020 
	C303.229828,247.527374 303.732544,248.889618 304.378937,250.641266 
	C302.056641,251.243484 300.097321,251.751587 296.973083,252.561783 
	C298.591919,249.280045 299.646576,247.104523 300.793793,244.978973 
	C300.832275,244.907639 301.805603,245.340866 302.535156,245.852020 
z"/>
<path fill="#E4E4BF" opacity="1.000000" stroke="none" 
	d="
M207.688416,265.264954 
	C205.964661,266.764618 204.094620,267.918915 202.224579,269.073212 
	C201.886505,268.752502 201.548431,268.431763 201.210358,268.111053 
	C202.331543,265.634033 203.452744,263.156982 204.987640,259.765961 
	C206.170197,262.151764 206.856171,263.535675 207.688416,265.264954 
z"/>
</svg>